<svg id="レイヤー_1" data-name="レイヤー 1" xmlns="http://www.w3.org/2000/svg" viewBox="0 0 854.86 240.44"><defs><style>.cls-1{fill:none;stroke-width:8px;}.cls-1,.cls-2{stroke:#fff;stroke-miterlimit:10;}.cls-2{fill:#fff;}</style></defs><title>coach-in</title><path class="cls-1" d="M112.38,185.27a26.12,26.12,0,1,0,15.26.09,3.45,3.45,0,0,1-2.41-3.3l0-62.55a3.47,3.47,0,0,1,2.85-3.4,43.37,43.37,0,0,0,11.1-3.75,3.47,3.47,0,0,1,4.26.9l22.78,28.07a3.48,3.48,0,0,1,.27,4,26.15,26.15,0,1,0,14.21-11.62,3.46,3.46,0,0,1-3.78-1.12l-22.77-28.07a3.46,3.46,0,0,1,0-4.33,43.41,43.41,0,0,0,8.66-33.55,5.21,5.21,0,0,1,2.87-5.51l23.51-11.34a3.44,3.44,0,0,1,3.7.45,26.13,26.13,0,1,0-9.31-20c0,.25,0,.5,0,.75a3.43,3.43,0,0,1-1.92,3.22L158.19,45.49a5.22,5.22,0,0,1-6.13-1.23,43.37,43.37,0,0,0-64.23-.08,5.22,5.22,0,0,1-6.12,1.22L58.25,34.1a3.47,3.47,0,0,1-2-3.22c0-.24,0-.49,0-.73a26.16,26.16,0,1,0-9.3,20,3.44,3.44,0,0,1,3.7-.45L74.15,61A5.17,5.17,0,0,1,77,66.45a43.3,43.3,0,0,0,8.64,33.7,3.47,3.47,0,0,1,0,4.35l-23,28a3.42,3.42,0,0,1-3.74,1.09,26.16,26.16,0,1,0,14.23,11.54,3.4,3.4,0,0,1,.27-3.92l22.94-27.94a3.47,3.47,0,0,1,4.24-.89,43,43,0,0,0,11.39,3.8,3.48,3.48,0,0,1,2.87,3.41l0,62.39a3.46,3.46,0,0,1-2.46,3.31"/><path class="cls-2" d="M261.64,121.23a24.65,24.65,0,0,1,1.26-7.68,23.16,23.16,0,0,1,3.66-7,19.86,19.86,0,0,1,5.82-5.17,14.91,14.91,0,0,1,7.72-2h58.49a4.82,4.82,0,1,1,0,9.64H282.21a11.18,11.18,0,0,0-5.67,1.25,10.48,10.48,0,0,0-3.41,3.06,10.61,10.61,0,0,0-1.71,4,17.69,17.69,0,0,0,0,7.93,10.61,10.61,0,0,0,1.71,4,10.26,10.26,0,0,0,3.41,3.06,11.18,11.18,0,0,0,5.67,1.26h56.38a4.82,4.82,0,1,1,0,9.63H279.1a13.54,13.54,0,0,1-7.33-2,19,19,0,0,1-5.46-5.17,24.12,24.12,0,0,1-3.46-7.07A25.63,25.63,0,0,1,261.64,121.23Z"/><path class="cls-2" d="M435.1,121.23a24.57,24.57,0,0,1-1.25,7.67,23.49,23.49,0,0,1-3.66,7,20.11,20.11,0,0,1-5.82,5.17,14.93,14.93,0,0,1-7.73,2H370.9a14.72,14.72,0,0,1-7.33-2.26,20.08,20.08,0,0,1-5.47-5.17,24.27,24.27,0,0,1-3.46-6.92,24.19,24.19,0,0,1,.05-15.2,23.41,23.41,0,0,1,3.67-7,20,20,0,0,1,5.81-5.17,15,15,0,0,1,7.73-2h45.75a14.71,14.71,0,0,1,7.32,2.26,20.23,20.23,0,0,1,5.47,5.17,24,24,0,0,1,3.46,6.92A25,25,0,0,1,435.1,121.23Zm-14.94,11a10.25,10.25,0,0,0,3.46-3.06,10.75,10.75,0,0,0,1.7-4,17.69,17.69,0,0,0,0-7.93,10.75,10.75,0,0,0-1.7-4,10.47,10.47,0,0,0-3.46-3.06,11.27,11.27,0,0,0-5.62-1.25H374a11.13,11.13,0,0,0-5.67,1.25,10.48,10.48,0,0,0-3.41,3.06,10.61,10.61,0,0,0-1.71,4,17.69,17.69,0,0,0,0,7.93,10.61,10.61,0,0,0,1.71,4,10.26,10.26,0,0,0,3.41,3.06,11.13,11.13,0,0,0,5.67,1.26h40.53A11.26,11.26,0,0,0,420.16,132.21Z"/><path class="cls-2" d="M453.66,141.29a4.76,4.76,0,0,1-7.12.4,4.61,4.61,0,0,1-1.4-3.41,4.17,4.17,0,0,1,1-2.91l24.38-32.8a13.24,13.24,0,0,1,10.53-5.22,13,13,0,0,1,5.72,1.3,11.78,11.78,0,0,1,4.42,3.61l24.37,32.61a6.73,6.73,0,0,1,1,1.56,4.36,4.36,0,0,1,.4,1.85,4.81,4.81,0,0,1-4.82,4.82,4.5,4.5,0,0,1-3.81-1.91L485,110a20.51,20.51,0,0,0-1.75-1.76,2.92,2.92,0,0,0-4.31,0,12.37,12.37,0,0,0-1.66,1.76Z"/><path class="cls-2" d="M527,121.23a24.65,24.65,0,0,1,1.26-7.68,23.16,23.16,0,0,1,3.66-7,19.86,19.86,0,0,1,5.82-5.17,14.89,14.89,0,0,1,7.72-2H604a4.82,4.82,0,1,1,0,9.64H547.57a11.18,11.18,0,0,0-5.67,1.25,10.48,10.48,0,0,0-3.41,3.06,10.61,10.61,0,0,0-1.71,4,17.69,17.69,0,0,0,0,7.93,10.61,10.61,0,0,0,1.71,4,10.26,10.26,0,0,0,3.41,3.06,11.18,11.18,0,0,0,5.67,1.26H604a4.82,4.82,0,1,1,0,9.63H544.46a13.51,13.51,0,0,1-7.33-2,19,19,0,0,1-5.46-5.17,24.12,24.12,0,0,1-3.46-7.07A25.63,25.63,0,0,1,527,121.23Z"/><path class="cls-2" d="M696,141.69a4.82,4.82,0,0,1-8.23-3.41V126H628.43v12.24a4.82,4.82,0,1,1-9.63,0V104.17a4.82,4.82,0,1,1,9.63,0v12.24h59.29V104.17a4.82,4.82,0,1,1,9.63,0v34.11A4.61,4.61,0,0,1,696,141.69Z"/><path class="cls-2" d="M745.31,117.81A4.82,4.82,0,0,1,741.9,126H711.8a5,5,0,0,1-3.11-1.55,4.54,4.54,0,0,1-1.3-3.26,4.78,4.78,0,0,1,4.81-4.82h29.7A4.66,4.66,0,0,1,745.31,117.81Z"/><path class="cls-2" d="M765,141.69a4.81,4.81,0,0,1-8.22-3.41V104.17a4.82,4.82,0,1,1,9.63,0v34.11A4.62,4.62,0,0,1,765,141.69Z"/><path class="cls-2" d="M846.14,100.76a4.81,4.81,0,0,1,8.22,3.41v29.19a9.49,9.49,0,0,1-2.76,6.93,9.25,9.25,0,0,1-6.87,2.81,10,10,0,0,1-2.76-.4,9.83,9.83,0,0,1-2.46-1.11L793.57,113.5c-1.28-.73-2.33-1.32-3.17-1.76a4.79,4.79,0,0,0-2-.65c-1,0-1.64.64-1.91,1.91a28.44,28.44,0,0,0-.4,5.52v19.76a4.82,4.82,0,1,1-9.63,0V109.09a9.51,9.51,0,0,1,2.76-6.93A9.25,9.25,0,0,1,786,99.35a9.56,9.56,0,0,1,2.76.41,9.46,9.46,0,0,1,2.46,1.1l46,28.09c1.27.74,2.32,1.32,3.16,1.76a4.79,4.79,0,0,0,2,.65c1,0,1.64-.64,1.91-1.91a28.44,28.44,0,0,0,.4-5.52V104.17A4.63,4.63,0,0,1,846.14,100.76Z"/></svg>